# xmcd
#
# Track frame offsets: 
#        150
#        19310
#        37242
#        54222
#        74207
#        95632
#        116182
#        134862
#        155807
#        179850
#        201827
#        223597
#        237340
#        260690
#        283972
#
# Disc length: 4089 seconds
#
# Revision: 5
# Processed by: cddbd v1.5.2PL0 Copyright (c) Steve Scherf et al.
# Submitted via: ExactAudioCopy v0.95b4
#
DISCID=090ff70f
DTITLE=张学友 - 等你等到我心痛张学友精选
DYEAR=1993
DGENRE=Pop
TTITLE0=等你等到我心痛
TTITLE1=总有一天等到你
TTITLE2=一生不醉醒
TTITLE3=爱、火、花
TTITLE4=分手总要在雨天
TTITLE5=明天世界终结时
TTITLE6=情网
TTITLE7=情浓半生(vs.汤宝如)
TTITLE8=还是觉得你最好
TTITLE9=爱得比你深
TTITLE10=日出时让恋爱终结
TTITLE11=留住秋色(vs.周慧敏)
TTITLE12=只想一生跟你走
TTITLE13=真情流露
TTITLE14=吻别
EXTD=ID3G: 13
EXTT0=
EXTT1=
EXTT2=
EXTT3=
EXTT4=
EXTT5=
EXTT6=
EXTT7=
EXTT8=
EXTT9=
EXTT10=
EXTT11=
EXTT12=
EXTT13=
EXTT14=
PLAYORDER=
